<svg xmlns="http://www.w3.org/2000/svg" width="1024" height="1024" viewBox="0 0 1024 1024">
  <defs>
    <linearGradient id="wall" x1="0" y1="0" x2="0" y2="1">
      <stop offset="0" stop-color="#d9e2e8"/>
      <stop offset="1" stop-color="#aebbc4"/>
    </linearGradient>
    <linearGradient id="jacket" x1="0" y1="0" x2="1" y2="1">
      <stop offset="0" stop-color="#8b9298"/>
      <stop offset="1" stop-color="#4d5358"/>
    </linearGradient>
  </defs>
  <rect width="1024" height="1024" fill="url(#wall)"/>
  <rect y="710" width="1024" height="314" fill="#705a46"/>
  <rect x="92" y="126" width="245" height="352" rx="8" fill="#263944"/>
  <rect x="112" y="146" width="205" height="312" fill="#91b6c5"/>
  <circle cx="780" cy="210" r="82" fill="#e4c46b" opacity=".8"/>
  <ellipse cx="512" cy="930" rx="260" ry="44" fill="#4a382b" opacity=".35"/>
  <circle cx="512" cy="360" r="116" fill="#c88f6b"/>
  <path d="M405 338c8-118 197-154 229-23 12 50-5 95-5 95-16-65-59-116-117-116-52 0-88 30-113 74 0 0 1-13 6-30z" fill="#2f2522"/>
  <ellipse cx="470" cy="360" rx="12" ry="8" fill="#352822"/>
  <ellipse cx="554" cy="360" rx="12" ry="8" fill="#352822"/>
  <path d="M483 414c18 13 42 13 59 0" fill="none" stroke="#784b3f" stroke-width="7" stroke-linecap="round"/>
  <path d="M380 520c75-54 189-54 264 0l91 363H289z" fill="url(#jacket)"/>
  <path d="M512 504v379" stroke="#d9dde0" stroke-width="10"/>
  <path d="M379 548 270 790l82 37 101-220M645 548l109 242-82 37-101-220" fill="url(#jacket)" stroke="#545b60" stroke-width="8" stroke-linejoin="round"/>
  <circle cx="512" cy="635" r="8" fill="#24292c"/>
  <circle cx="512" cy="718" r="8" fill="#24292c"/>
  <circle cx="512" cy="801" r="8" fill="#24292c"/>
</svg>
